<svg width="32" height="32" viewBox="0 0 32 32" fill="none" xmlns="http://www.w3.org/2000/svg">
<path d="M26.6667 16.3648C26.6667 16.8711 26.2905 17.2895 25.8024 17.3557L25.6667 17.3648L8.08799 17.364L14.4386 23.6887C14.83 24.0784 14.8314 24.7116 14.4417 25.1029C14.0874 25.4587 13.5319 25.4922 13.1398 25.2026L13.0275 25.106L4.96081 17.074C4.90922 17.0226 4.86441 16.967 4.82638 16.9083C4.81564 16.8907 4.80471 16.8726 4.79434 16.8541C4.78481 16.8383 4.77619 16.8219 4.76806 16.8053C4.75677 16.7812 4.74574 16.7562 4.73573 16.7308C4.72759 16.7111 4.7208 16.6921 4.7146 16.6728C4.70723 16.649 4.70008 16.6235 4.69392 16.5977C4.68934 16.5797 4.68571 16.5624 4.68255 16.5449C4.67811 16.519 4.67432 16.4922 4.67162 16.4651C4.66929 16.4444 4.66788 16.4239 4.66711 16.4034C4.66691 16.3909 4.66666 16.3779 4.66666 16.3648L4.66716 16.3261C4.66792 16.3065 4.66926 16.2869 4.67118 16.2673L4.66666 16.3648C4.66666 16.3017 4.6725 16.24 4.68368 16.1801C4.68627 16.1658 4.68936 16.1511 4.69278 16.1365C4.69988 16.1064 4.70809 16.0774 4.71755 16.049C4.72219 16.0349 4.72759 16.0198 4.73337 16.0048C4.74505 15.9748 4.75776 15.9461 4.77173 15.9181C4.77822 15.905 4.78549 15.8912 4.7931 15.8776C4.8056 15.8554 4.81847 15.8343 4.83209 15.8137C4.84169 15.7992 4.85233 15.784 4.86343 15.7691L4.87209 15.7576C4.89903 15.7224 4.92826 15.689 4.95955 15.6577L4.96075 15.6568L13.0274 7.62346C13.4187 7.23375 14.0519 7.23506 14.4416 7.62639C14.7959 7.98215 14.827 8.53776 14.5358 8.92864L14.4387 9.0406L8.09066 15.364L25.6667 15.3648C26.2189 15.3648 26.6667 15.8125 26.6667 16.3648Z" fill="#389E0D"/>
</svg>
