<svg width="18" height="11" viewBox="0 0 18 11" fill="none" xmlns="http://www.w3.org/2000/svg">
<path fill-rule="evenodd" clip-rule="evenodd" d="M9.94272 9.94247C9.69268 10.1924 9.3536 10.3329 9.00005 10.3329C8.6465 10.3329 8.30742 10.1924 8.05738 9.94247L0.514717 2.39981C0.38737 2.27681 0.285794 2.12968 0.215915 1.96701C0.146036 1.80434 0.109255 1.62938 0.107716 1.45234C0.106178 1.2753 0.139914 1.09973 0.206955 0.935868C0.273996 0.772006 0.373 0.623136 0.498191 0.497946C0.623381 0.372756 0.77225 0.273751 0.936112 0.20671C1.09997 0.139669 1.27555 0.105934 1.45259 0.107472C1.62962 0.109011 1.80458 0.145792 1.96726 0.215671C2.12993 0.28555 2.27705 0.387125 2.40005 0.514472L9.00005 7.11447L15.6001 0.514472C15.8515 0.271595 16.1883 0.137203 16.5379 0.14024C16.8875 0.143278 17.2219 0.283503 17.4691 0.530714C17.7164 0.777925 17.8566 1.11234 17.8596 1.46194C17.8627 1.81153 17.7283 2.14834 17.4854 2.39981L9.94272 9.94247Z" fill="#4A505C"/>
</svg>
