<?xml version="1.0" encoding="utf-8"?>
<!-- Generator: Adobe Illustrator 26.2.1, SVG Export Plug-In . SVG Version: 6.00 Build 0)  -->
<svg version="1.1" id="Layer_1" xmlns="http://www.w3.org/2000/svg" xmlns:xlink="http://www.w3.org/1999/xlink" x="0px" y="0px"
	 width="18px" height="18px" viewBox="0 0 18 18" enable-background="new 0 0 18 18" xml:space="preserve">
<path fill="#FFFFFF" d="M9,0.2c-4.9,0-8.8,4-8.8,8.8c0,4.9,4,8.8,8.8,8.8c4.9,0,8.8-4,8.8-8.8C17.8,4.1,13.9,0.2,9,0.2z M9,15.9
	c-3.8,0-6.9-3.1-6.9-6.9c0-3.8,3.1-6.9,6.9-6.9c3.8,0,6.9,3.1,6.9,6.9C15.9,12.8,12.8,15.9,9,15.9z M13.4,8.5c0,0.5-0.4,1-1,1H8.1
	l1.3,1.3c0.4,0.4,0.4,1,0,1.4c-0.2,0.2-0.4,0.3-0.7,0.3S8.2,12.3,8,12.1L5.1,9.3c-0.4-0.4-0.4-1,0-1.4L8,5c0.4-0.4,1-0.4,1.4,0
	c0.4,0.4,0.4,1,0,1.4L8.3,7.5h4.2C13,7.5,13.4,8,13.4,8.5z"/>
</svg>
