<svg xmlns="http://www.w3.org/2000/svg" width="40" height="40" viewBox="0 0 40 40">
  <g id="Group_4057" data-name="Group 4057" transform="translate(-16 -108)">
    <circle id="Ellipse_124" data-name="Ellipse 124" cx="20" cy="20" r="20" transform="translate(16 108)" fill="#ffc522"/>
    <g id="Group_3971" data-name="Group 3971" transform="translate(23.667 52.752)">
      <path id="Path_1749" data-name="Path 1749" d="M21.429,75l-1.295-5.849a1.387,1.387,0,0,0,.874-.482,1.657,1.657,0,0,0,.881.253H23a.555.555,0,0,0,.556-.556V66.147A.556.556,0,0,0,23,65.591H21.889a1.656,1.656,0,0,0-.9.268,1.384,1.384,0,0,0-1.039-.469H16.667a1.389,1.389,0,0,0-1.294.889H14.056a1.444,1.444,0,1,0,0,2.889h2.86v1.12a.556.556,0,1,0,1.111,0v-1.12h.8l1.395,6.3-2.468,4.7a1.632,1.632,0,0,1-1.42.83H11.523a4.674,4.674,0,0,0-4.634-4.113,4.622,4.622,0,0,0-2.881.995l0,0A4.639,4.639,0,0,0,2.253,81h-.57a6.387,6.387,0,0,1,6.784-6.614h3.538a.565.565,0,0,1,.564.564v4.74a.556.556,0,0,0,.556.556h1.582a3.583,3.583,0,0,0,3.005-1.816,3.321,3.321,0,0,0,.413-1.6l0-7.727a.535.535,0,0,0-.6-.491.613.613,0,0,0-.62.555l0,7.41a2.2,2.2,0,0,1-2.2,2.2h-.624V74.343a1.666,1.666,0,0,0-.2-.788,1.666,1.666,0,0,0-.831-3.111H11.027a1.658,1.658,0,0,0-.556.1V65.667A1.669,1.669,0,0,0,8.805,64H5.221A5.229,5.229,0,0,0,.066,68.4a.555.555,0,0,0-.026.168s0,.007,0,.01a5.241,5.241,0,0,0-.04.648v2.89a1.669,1.669,0,0,0,1.418,1.648l1.23,1.23A8.444,8.444,0,0,0,0,81.134v.42a.555.555,0,0,0,.556.556H3.678a.567.567,0,0,0-.011.111,3.207,3.207,0,0,0,.79,2.109H.556a.556.556,0,0,0,0,1.111H6.824l.064,0a3.226,3.226,0,0,0,3.222-3.222.567.567,0,0,0-.011-.111h6.235A2.745,2.745,0,0,0,18.539,81h.7a3.213,3.213,0,0,0,.548,3.333H16.018a.556.556,0,0,0,0,1.111h6.14l.064,0A3.221,3.221,0,0,0,25.2,81h.909a.555.555,0,0,0,.556-.556A5.449,5.449,0,0,0,21.429,75Zm-10.4-3.448h2.028a.556.556,0,1,1,0,1.111H11.027a.556.556,0,1,1,0-1.111ZM1.375,69.412c0-.032,0-.064,0-.1h5.69a.613.613,0,0,0,.52-.618c0-.287-.233-.634-.52-.634H1.546a3.854,3.854,0,0,1,3.676-2.711H8.577a.521.521,0,0,1,.52.52v6.032a.521.521,0,0,1-.52.52H1.895a.521.521,0,0,1-.52-.52Zm1.633,4.365H4.279a8.469,8.469,0,0,0-.772.5Zm5.756,8.431a1.877,1.877,0,0,1-1.856,1.875H6.832a1.877,1.877,0,0,1-1.819-1.874.5.5,0,0,0-.01-.1H8.774A.5.5,0,0,0,8.764,82.208ZM3.374,81a3.535,3.535,0,0,1,1.317-2.242l.005,0A3.52,3.52,0,0,1,6.889,78,3.563,3.563,0,0,1,10.4,81ZM21.889,66.7h.556v1.111h-.556a.556.556,0,1,1,0-1.111Zm-8.166,1.02a.334.334,0,0,1,.333-.333H15.28v.391a1.394,1.394,0,0,0,.028.276H14.056A.334.334,0,0,1,13.723,67.723Zm3.748.333h-.8a.276.276,0,0,1-.276-.276v-1a.276.276,0,0,1,.276-.276h3.279a.276.276,0,0,1,.276.276v1a.276.276,0,0,1-.276.276ZM24.177,82.13a1.956,1.956,0,0,1-1.934,1.953h-.079A1.954,1.954,0,0,1,20.631,81h3.184A1.951,1.951,0,0,1,24.177,82.13Zm-4.989-2.244,2.118-3.773a4.336,4.336,0,0,1,4.214,3.773Z" transform="translate(0)" fill="#1b1b1b"/>
    </g>
  </g>
</svg>
